<!--?xml version="1.0" standalone="no"?-->
              <svg id="sw-js-blob-svg" viewBox="0 0 100 100" xmlns="http://www.w3.org/2000/svg" version="1.1">
                    <defs> 
                        <linearGradient id="sw-gradient" x1="0" x2="1" y1="1" y2="0">
                            <stop id="stop1" stop-color="rgba(248, 117, 55, 1)" offset="0%"></stop>
                            <stop id="stop2" stop-color="rgba(251, 168, 31, 1)" offset="100%"></stop>
                        </linearGradient>
                    </defs>
                <path fill="url(#sw-gradient)" d="M13.4,-11.9C21.3,-9.4,34.2,-8.8,39.1,-3.5C44.1,1.8,41.2,12,34.4,16.4C27.7,20.8,17.2,19.5,9.1,20.3C1.1,21.2,-4.4,24.2,-11.9,24.9C-19.4,25.5,-28.8,23.8,-32.4,18.3C-35.9,12.9,-33.7,3.7,-29.1,-2.1C-24.5,-7.9,-17.5,-10.3,-12.3,-13.2C-7.1,-16.1,-3.5,-19.6,-0.4,-19.2C2.8,-18.7,5.6,-14.3,13.4,-11.9Z" width="100%" height="100%" transform="translate(50 50)" stroke-width="0" style="transition: all 0.3s ease 0s;"></path>
              </svg>