<!--?xml version="1.0" standalone="no"?-->
              <svg id="sw-js-blob-svg" viewBox="0 0 100 100" xmlns="http://www.w3.org/2000/svg" version="1.1">
                    <defs> 
                        <linearGradient id="sw-gradient" x1="0" x2="1" y1="1" y2="0">
                            <stop id="stop1" stop-color="rgba(55, 104.157, 248, 1)" offset="0%"></stop>
                            <stop id="stop2" stop-color="rgba(251, 124.57, 31, 1)" offset="100%"></stop>
                        </linearGradient>
                    </defs>
                <path fill="url(#sw-gradient)" d="M22.4,-29.6C26.4,-27.9,25.2,-17.9,25.5,-9.9C25.8,-2,27.7,3.8,24.6,6.4C21.5,8.9,13.5,8.2,8.6,9C3.7,9.8,1.8,12.1,-0.4,12.6C-2.6,13.2,-5.2,12,-10,11.2C-14.8,10.3,-21.7,9.8,-25.8,6.3C-29.8,2.7,-31,-3.9,-30.9,-11.9C-30.9,-20,-29.6,-29.5,-24.2,-30.6C-18.9,-31.8,-9.4,-24.7,-0.1,-24.5C9.2,-24.3,18.4,-31.2,22.4,-29.6Z" width="100%" height="100%" transform="translate(50 50)" stroke-width="0" style="transition: all 0.3s ease 0s;" stroke="url(#sw-gradient)"></path>
              </svg>