<!--?xml version="1.0" standalone="no"?-->
              <svg id="sw-js-blob-svg" viewBox="0 0 100 100" xmlns="http://www.w3.org/2000/svg" version="1.1">
                    <defs> 
                        <linearGradient id="sw-gradient" x1="0" x2="1" y1="1" y2="0">
                            <stop id="stop1" stop-color="rgba(248, 117, 55, 1)" offset="0%"></stop>
                            <stop id="stop2" stop-color="rgba(251, 124.57, 31, 1)" offset="100%"></stop>
                        </linearGradient>
                    </defs>
                <path fill="url(#sw-gradient)" d="M26.3,-27.1C32,-26.6,33.1,-16.3,34,-6.7C34.8,3,35.6,12,30.5,14.6C25.4,17.2,14.4,13.5,7.9,11.4C1.3,9.3,-0.9,9,-5.9,9.9C-10.9,10.8,-18.7,13.1,-26,10.3C-33.3,7.5,-40,-0.4,-38.2,-6.1C-36.5,-11.9,-26.3,-15.6,-18.6,-15.7C-10.8,-15.8,-5.4,-12.4,2.5,-15.4C10.3,-18.3,20.6,-27.6,26.3,-27.1Z" width="100%" height="100%" transform="translate(50 50)" stroke-width="0" style="transition: all 0.3s ease 0s;" stroke="url(#sw-gradient)"></path>
              </svg>